<?xml version="1.0" encoding="UTF-8" standalone="no"?>
<!-- Created with Inkscape (http://www.inkscape.org/) -->

<svg
   width="256mm"
   height="256mm"
   viewBox="0 0 256 256"
   version="1.1"
   id="svg5"
   inkscape:version="1.2.2 (b0a8486541, 2022-12-01)"
   sodipodi:docname="new.svg"
   xmlns:inkscape="http://www.inkscape.org/namespaces/inkscape"
   xmlns:sodipodi="http://sodipodi.sourceforge.net/DTD/sodipodi-0.dtd"
   xmlns="http://www.w3.org/2000/svg"
   xmlns:svg="http://www.w3.org/2000/svg">
  <sodipodi:namedview
     id="namedview7"
     pagecolor="#505050"
     bordercolor="#ffffff"
     borderopacity="1"
     inkscape:showpageshadow="0"
     inkscape:pageopacity="0"
     inkscape:pagecheckerboard="1"
     inkscape:deskcolor="#505050"
     inkscape:document-units="mm"
     showgrid="false"
     inkscape:zoom="0.54866744"
     inkscape:cx="287.05913"
     inkscape:cy="470.2302"
     inkscape:window-width="1920"
     inkscape:window-height="1007"
     inkscape:window-x="0"
     inkscape:window-y="0"
     inkscape:window-maximized="1"
     inkscape:current-layer="layer1" />
  <defs
     id="defs2">
    <inkscape:path-effect
       effect="fillet_chamfer"
       id="path-effect3182"
       is_visible="true"
       lpeversion="1"
       nodesatellites_param="F,0,0,1,0,6.6145833,0,1 @ F,0,0,1,0,6.6145833,0,1 @ F,0,0,1,0,6.6145833,0,1 @ F,0,0,1,0,6.6145833,0,1 @ F,0,0,1,0,6.6145833,0,1 @ F,0,0,1,0,6.6145833,0,1 @ F,0,0,1,0,6.6145833,0,1 @ F,0,0,1,0,6.6145833,0,1 @ F,0,0,1,0,6.6145833,0,1 @ F,0,0,1,0,6.6145833,0,1 @ F,0,0,1,0,6.6145833,0,1 @ F,0,0,1,0,6.6145833,0,1"
       unit="px"
       method="auto"
       mode="F"
       radius="25"
       chamfer_steps="1"
       flexible="false"
       use_knot_distance="true"
       apply_no_radius="true"
       apply_with_radius="true"
       only_selected="false"
       hide_knots="false" />
    <inkscape:path-effect
       effect="fillet_chamfer"
       id="path-effect3175"
       is_visible="true"
       lpeversion="1"
       nodesatellites_param="F,0,0,1,0,18.520833,0,1 @ F,0,0,1,0,18.520833,0,1 @ F,0,0,1,0,18.520833,0,1 @ F,0,0,1,0,18.520833,0,1 @ F,0,0,1,0,18.520833,0,1"
       unit="px"
       method="auto"
       mode="F"
       radius="70"
       chamfer_steps="1"
       flexible="false"
       use_knot_distance="true"
       apply_no_radius="true"
       apply_with_radius="true"
       only_selected="false"
       hide_knots="false" />
    <inkscape:path-effect
       effect="fillet_chamfer"
       id="path-effect3124"
       is_visible="true"
       lpeversion="1"
       nodesatellites_param="C,0,0,1,0,0,0,1 @ C,0,0,1,0,42.282434,0,1 @ C,0,0,1,0,0,0,1 @ C,0,0,1,0,0,0,1"
       unit="px"
       method="auto"
       mode="F"
       radius="0"
       chamfer_steps="1"
       flexible="false"
       use_knot_distance="true"
       apply_no_radius="true"
       apply_with_radius="true"
       only_selected="false"
       hide_knots="false" />
  </defs>
  <g
     inkscape:label="Calque 1"
     inkscape:groupmode="layer"
     id="layer1">
    <path
       id="rect2240"
       style="fill:none;stroke:#000000;stroke-width:20;stroke-dasharray:none"
       d="m 59.928368,22.779169 h 93.260362 a 44.713246,44.713246 22.5 0 1 31.61704,13.096207 l 16.09002,16.09002 a 44.713246,44.713246 67.5 0 1 13.09621,31.61704 l 0,130.517094 a 18.520833,18.520833 135 0 1 -18.52083,18.52083 H 59.928368 A 18.520833,18.520833 45 0 1 41.407535,214.09953 V 41.300002 A 18.520833,18.520833 135 0 1 59.928368,22.779169 Z"
       inkscape:path-effect="#path-effect3124;#path-effect3175"
       inkscape:original-d="M 41.407535,22.779169 H 213.992 V 232.62036 H 41.407535 Z" />
    <path
       id="rect3177"
       style="fill:#000000;fill-opacity:1;stroke:none;stroke-width:8.32135;stroke-linejoin:miter;stroke-dasharray:none;stroke-dashoffset:0;stroke-opacity:1"
       d="m 113.09988,124.01157 0,12.07143 a 6.6145833,6.6145833 135 0 1 -6.61458,6.61458 H 94.413885 a 6.6145833,6.6145833 135 0 0 -6.614583,6.61458 v 10.17393 a 6.6145833,6.6145833 45 0 0 6.614583,6.61458 H 106.4853 a 6.6145833,6.6145833 45 0 1 6.61458,6.61458 v 12.07142 a 6.6145833,6.6145833 45 0 0 6.61458,6.61458 h 10.17393 a 6.6145833,6.6145833 135 0 0 6.61458,-6.61458 v -12.07142 a 6.6145833,6.6145833 135 0 1 6.61458,-6.61458 h 12.07142 a 6.6145833,6.6145833 135 0 0 6.61458,-6.61458 v -10.17393 a 6.6145833,6.6145833 45 0 0 -6.61458,-6.61458 h -12.07142 a 6.6145833,6.6145833 45 0 1 -6.61458,-6.61458 v -12.07143 a 6.6145833,6.6145833 45 0 0 -6.61458,-6.61458 l -10.17393,0 a 6.6145833,6.6145833 135 0 0 -6.61458,6.61458 z"
       inkscape:path-effect="#path-effect3182"
       inkscape:original-d="m 113.09988,117.39699 v 25.30059 H 87.799302 v 23.40309 h 25.300578 v 25.30058 h 23.40309 v -25.30058 h 25.30058 v -23.40309 h -25.30058 v -25.30059 z" />
  </g>
</svg>
