<?xml version="1.0" encoding="UTF-8" standalone="no"?>
<!-- Created with Inkscape (http://www.inkscape.org/) -->

<svg
   width="256mm"
   height="256mm"
   viewBox="0 0 256 256"
   version="1.1"
   id="svg5"
   inkscape:version="1.2.2 (b0a8486541, 2022-12-01)"
   sodipodi:docname="sorting.svg"
   xmlns:inkscape="http://www.inkscape.org/namespaces/inkscape"
   xmlns:sodipodi="http://sodipodi.sourceforge.net/DTD/sodipodi-0.dtd"
   xmlns="http://www.w3.org/2000/svg"
   xmlns:svg="http://www.w3.org/2000/svg">
  <sodipodi:namedview
     id="namedview7"
     pagecolor="#505050"
     bordercolor="#ffffff"
     borderopacity="1"
     inkscape:showpageshadow="0"
     inkscape:pageopacity="0"
     inkscape:pagecheckerboard="1"
     inkscape:deskcolor="#505050"
     inkscape:document-units="mm"
     showgrid="false"
     inkscape:zoom="0.77593294"
     inkscape:cx="381.47626"
     inkscape:cy="469.1127"
     inkscape:window-width="1920"
     inkscape:window-height="1007"
     inkscape:window-x="0"
     inkscape:window-y="0"
     inkscape:window-maximized="1"
     inkscape:current-layer="layer1" />
  <defs
     id="defs2">
    <inkscape:path-effect
       effect="fillet_chamfer"
       id="path-effect1210"
       is_visible="true"
       lpeversion="1"
       nodesatellites_param="F,0,0,1,0,3.96875,0,1 @ F,0,0,1,0,3.96875,0,1 @ F,0,0,1,0,3.96875,0,1 @ F,0,0,1,0,3.96875,0,1 @ F,0,0,1,0,3.96875,0,1 @ F,0,0,1,0,3.96875,0,1 @ F,0,0,1,0,3.96875,0,1 @ F,0,0,1,0,3.96875,0,1 @ F,0,0,1,0,3.96875,0,1 @ F,0,0,1,0,3.96875,0,1"
       unit="px"
       method="auto"
       mode="F"
       radius="15"
       chamfer_steps="1"
       flexible="false"
       use_knot_distance="true"
       apply_no_radius="true"
       apply_with_radius="true"
       only_selected="false"
       hide_knots="false" />
  </defs>
  <g
     inkscape:label="Calque 1"
     inkscape:groupmode="layer"
     id="layer1">
    <path
       id="path234"
       style="fill:#000000;stroke:none;stroke-width:12.5705"
       d="M 127.99994 8.1659098 A 119.8339 119.8339 0 0 0 8.1659098 127.99994 A 119.8339 119.8339 0 0 0 127.99994 247.83397 A 119.8339 119.8339 0 0 0 247.83397 127.99994 A 119.8339 119.8339 0 0 0 127.99994 8.1659098 z M 127.44235 26.515694 A 3.076914 3.076914 0 0 1 130.43183 27.65671 L 158.84198 64.302018 A 1.9448761 1.9448761 0 0 1 157.30513 67.438261 L 150.29367 67.438261 A 3.96875 3.96875 0 0 0 146.32492 71.407011 L 146.32492 184.59287 A 3.96875 3.96875 0 0 0 150.29367 188.56162 L 157.30513 188.56162 A 1.9448761 1.9448761 0 0 1 158.84198 191.69838 L 130.43183 228.34368 A 3.076914 3.076914 0 0 1 125.56805 228.34368 L 97.157894 191.69838 A 1.9448762 1.9448762 0 0 1 98.694751 188.56162 L 105.70673 188.56162 A 3.96875 3.96875 0 0 0 109.67548 184.59287 L 109.67548 71.407011 A 3.96875 3.96875 0 0 0 105.70673 67.438261 L 98.694751 67.438261 A 1.9448762 1.9448762 0 0 1 97.157894 64.302018 L 125.56805 27.65671 A 3.076914 3.076914 0 0 1 127.44235 26.515694 z " />
  </g>
</svg>
