<?xml version="1.0" encoding="UTF-8" standalone="no"?>
<!-- Created with Inkscape (http://www.inkscape.org/) -->

<svg
   width="256mm"
   height="256mm"
   viewBox="0 0 256 256"
   version="1.1"
   id="svg2415"
   sodipodi:docname="updateColumns2.svg"
   inkscape:version="1.2.2 (b0a8486541, 2022-12-01)"
   xmlns:inkscape="http://www.inkscape.org/namespaces/inkscape"
   xmlns:sodipodi="http://sodipodi.sourceforge.net/DTD/sodipodi-0.dtd"
   xmlns="http://www.w3.org/2000/svg"
   xmlns:svg="http://www.w3.org/2000/svg">
  <sodipodi:namedview
     id="namedview2417"
     pagecolor="#505050"
     bordercolor="#ffffff"
     borderopacity="1"
     inkscape:showpageshadow="0"
     inkscape:pageopacity="0"
     inkscape:pagecheckerboard="1"
     inkscape:deskcolor="#505050"
     inkscape:document-units="mm"
     showgrid="false"
     inkscape:zoom="0.70710678"
     inkscape:cx="700.74283"
     inkscape:cy="449.71992"
     inkscape:window-width="1920"
     inkscape:window-height="1007"
     inkscape:window-x="0"
     inkscape:window-y="0"
     inkscape:window-maximized="1"
     inkscape:current-layer="layer1" />
  <defs
     id="defs2412">
    <inkscape:path-effect
       effect="fillet_chamfer"
       id="path-effect2622"
       is_visible="true"
       lpeversion="1"
       nodesatellites_param="F,0,0,1,0,8.9904854,0,1 @ F,0,1,1,0,13.263296,0,1 @ F,0,0,1,0,8.9904854,0,1 @ F,0,0,1,0,8.9904854,0,1 @ F,0,1,1,0,13.263296,0,1 @ F,0,1,1,0,13.263296,0,1 @ F,0,0,1,0,8.9904854,0,1 @ F,0,0,1,0,8.9904854,0,1 @ F,0,1,1,0,13.263296,0,1 @ F,0,1,1,0,13.263296,0,1 @ F,0,0,1,0,8.9904854,0,1 @ F,0,0,1,0,8.9904854,0,1 @ F,0,1,1,0,13.263296,0,1 @ F,0,1,1,0,13.263296,0,1 @ F,0,0,1,0,8.9904854,0,1 @ F,0,0,1,0,8.9904854,0,1 @ F,0,1,1,0,13.263296,0,1 @ F,0,1,1,0,13.263296,0,1 @ F,0,0,1,0,8.9904854,0,1 @ F,0,0,1,0,8.9904854,0,1 @ F,0,1,1,0,13.263296,0,1 @ F,0,1,1,0,13.263296,0,1 @ F,0,0,1,0,8.9904854,0,1 @ F,0,0,1,0,8.9904854,0,1 @ F,0,1,1,0,13.263296,0,1 @ F,0,1,1,0,13.263296,0,1 @ F,0,0,1,0,8.9904854,0,1 @ F,0,0,1,0,8.9904854,0,1 @ F,0,1,1,0,13.263296,0,1 @ F,0,1,1,0,13.263296,0,1 @ F,0,0,1,0,8.9904854,0,1 @ F,0,0,1,0,8.9904854,0,1 @ F,0,1,1,0,13.263296,0,1"
       unit="px"
       method="auto"
       mode="F"
       radius="0"
       chamfer_steps="1"
       flexible="false"
       use_knot_distance="true"
       apply_no_radius="true"
       apply_with_radius="true"
       only_selected="false"
       hide_knots="false" />
  </defs>
  <g
     inkscape:label="Calque 1"
     inkscape:groupmode="layer"
     id="layer1">
    <path
       id="path2536"
       style="fill:#000000;stroke-width:20.1613"
       d="m 116.3987,18.006627 c -1.34929,0.142307 -2.69574,0.309416 -4.03865,0.501231 -7.24717,1.035153 -11.4493,8.393083 -9.55334,15.468582 l 0.81848,3.054482 c 1.28517,4.796105 -1.589,9.672037 -6.225646,11.442047 -1.348421,0.514751 -2.683552,1.063664 -4.0041,1.646209 -4.540807,2.003125 -10.031818,0.569369 -12.514434,-3.730735 L 79.329435,43.700981 C 75.666933,37.357212 67.492683,35.12565 61.636167,39.518175 53.252987,45.805758 45.805242,53.253504 39.517658,61.636684 35.125133,67.4932 37.356695,75.66745 43.700464,79.329952 l 2.687462,1.551575 c 4.300104,2.482616 5.733939,7.973674 3.730917,12.514526 -0.582488,1.320502 -1.131349,2.655585 -1.646049,4.003955 -1.769915,4.636682 -6.645772,7.510892 -11.441884,6.225742 l -3.054969,-0.81859 c -7.075508,-1.89592 -14.433521,2.30622 -15.468703,9.55339 -1.481765,10.37364 -1.481765,20.90618 0,31.27982 1.035182,7.24717 8.393203,11.44934 15.468722,9.55346 l 3.055454,-0.81871 c 4.796119,-1.28512 9.672029,1.5891 11.442,6.22576 0.514657,1.34821 1.063467,2.68314 1.645897,4.00348 2.00305,4.54084 0.569252,10.03191 -3.730834,12.51456 l -2.688064,1.55195 c -6.343741,3.66256 -8.57528,11.83685 -4.182754,17.69336 6.287583,8.38318 13.735328,15.83092 22.118508,22.11851 5.856515,4.39252 14.030804,2.16098 17.693353,-4.18276 l 1.551949,-2.68806 c 2.482648,-4.30009 7.973719,-5.73389 12.514559,-3.73084 1.320351,0.58243 2.655279,1.13124 4.003493,1.6459 4.636659,1.76997 7.510879,6.64588 6.225759,11.442 l -0.81871,3.05546 c -1.89588,7.07552 2.30629,14.43354 9.55346,15.46872 10.37364,1.48177 20.90618,1.48177 31.27982,0 7.24717,-1.03518 11.44934,-8.3932 9.55346,-15.46872 l -0.81871,-3.05546 c -1.28512,-4.79612 1.5891,-9.67203 6.22576,-11.442 1.34821,-0.51466 2.68314,-1.06347 4.00349,-1.6459 4.54084,-2.00305 10.03191,-0.56925 12.51456,3.73084 l 1.55195,2.68806 c 3.66255,6.34374 11.83684,8.57528 17.69335,4.18276 8.38318,-6.28759 15.83092,-13.73533 22.11851,-22.11851 4.39252,-5.85651 2.16098,-14.0308 -4.18276,-17.69336 l -2.68806,-1.55194 c -4.30008,-2.48265 -5.73388,-7.97373 -3.73083,-12.51457 0.58243,-1.32035 1.13124,-2.65527 1.64589,-4.00348 1.76997,-4.63666 6.64588,-7.51088 11.442,-6.22576 l 3.05546,0.81871 c 7.07552,1.89588 14.43354,-2.30629 15.46872,-9.55346 1.48177,-10.37364 1.48177,-20.90618 0,-31.27982 -1.03518,-7.24717 -8.3932,-11.44932 -15.46871,-9.55342 l -3.00121,0.80418 c -4.79612,1.28513 -9.68259,-1.5864 -11.46508,-6.218263 -0.5191,-1.348925 -1.07243,-2.684431 -1.65945,-4.00522 -2.01566,-4.535256 -0.59151,-10.020598 3.70858,-12.503232 l 2.69267,-1.554596 c 6.34375,-3.662528 8.5753,-11.836799 4.18278,-17.693315 C 210.19463,53.253505 202.74689,45.805759 194.36371,39.518176 188.5072,35.12565 180.33292,37.3572 176.6704,43.700954 l -1.5546,2.692675 c -2.48264,4.300095 -7.96798,5.724239 -12.50323,3.708575 -1.32079,-0.587015 -2.6563,-1.140344 -4.00522,-1.659451 -4.63187,-1.782484 -7.50339,-6.668961 -6.21826,-11.465077 l 0.80418,-3.001209 c 1.8959,-7.075514 -2.30627,-14.433462 -9.55344,-15.468619 -3.07994,-0.439927 -6.17771,-0.749794 -9.28503,-0.928612 -4.95575,-0.28519 -13.01954,-0.09326 -17.9561,0.427391 z"
       inkscape:path-effect="#path-effect2622"
       inkscape:original-d="m 125.36806,17.427877 a 110.60356,110.60356 0 0 0 -25.994281,3.737239 l 6.578411,24.549923 A 85.246841,85.246841 0 0 0 85.376184,54.174471 L 72.697888,32.214571 A 110.60356,110.60356 0 0 0 32.214054,72.698405 l 21.9599,12.678296 A 85.246841,85.246841 0 0 0 45.715039,105.95271 L 21.1646,99.374296 a 110.60356,110.60356 0 0 0 0,57.252324 l 24.550956,-6.57841 a 85.246841,85.246841 0 0 0 8.458915,20.57548 l -21.960417,12.67882 a 110.60356,110.60356 0 0 0 40.483834,40.48383 l 12.678813,-21.96042 a 85.246841,85.246841 0 0 0 20.575489,8.45892 l -6.578411,24.55096 a 110.60356,110.60356 0 0 0 57.252321,0 l -6.57841,-24.55096 a 85.246841,85.246841 0 0 0 20.57549,-8.45892 l 12.67881,21.96042 a 110.60356,110.60356 0 0 0 40.48383,-40.48383 l -21.96041,-12.67882 a 85.246841,85.246841 0 0 0 8.45891,-20.57548 l 24.55096,6.57841 a 110.60356,110.60356 0 0 0 0,-57.252324 l -24.4967,6.563944 A 85.246841,85.246841 0 0 0 201.82076,85.379801 L 223.78582,72.698405 A 110.60356,110.60356 0 0 0 183.30199,32.214571 l -12.6814,21.965068 a 85.246841,85.246841 0 0 0 -20.55843,-8.517827 l 6.56394,-24.496696 a 110.60356,110.60356 0 0 0 -31.25804,-3.737239 z" />
    <circle
       style="fill:#ffffff;stroke-width:14.9194"
       id="circle2538"
       cx="128"
       cy="128"
       r="63.082661" />
  </g>
</svg>
